<svg width="100%" viewBox="0 0 680 1060" xmlns="http://www.w3.org/2000/svg">
<defs>
  <marker id="arrow" viewBox="0 0 10 10" refX="8" refY="5" markerWidth="6" markerHeight="6" orient="auto-start-reverse">
    <path d="M2 1L8 5L2 9" fill="none" stroke="#555" stroke-width="1.5" stroke-linecap="round" stroke-linejoin="round"/>
  </marker>
  <style>
    text { font-family: Arial, sans-serif; }
    .th { font-size: 14px; font-weight: 600; }
    .ts { font-size: 12px; font-weight: 400; }
    .arr { stroke: #555; stroke-width: 1; fill: none; }
  </style>
</defs>

<!-- ── AUTH LAYER ── -->
<rect x="30" y="30" width="620" height="110" rx="14" fill="#E6F1FB" stroke="#185FA5" stroke-width="0.5"/>
<text class="th" x="340" y="54" text-anchor="middle" dominant-baseline="central" fill="#042C53">Auth layer — NextAuth.js + MFA</text>

<rect x="56" y="72" width="150" height="52" rx="8" fill="#B5D4F4" stroke="#0C447C" stroke-width="0.5"/>
<text class="th" x="131" y="91" text-anchor="middle" dominant-baseline="central" fill="#042C53">NextAuth.js</text>
<text class="ts" x="131" y="109" text-anchor="middle" dominant-baseline="central" fill="#185FA5">Session lifecycle</text>

<rect x="226" y="72" width="150" height="52" rx="8" fill="#B5D4F4" stroke="#0C447C" stroke-width="0.5"/>
<text class="th" x="301" y="91" text-anchor="middle" dominant-baseline="central" fill="#042C53">TOTP MFA</text>
<text class="ts" x="301" y="109" text-anchor="middle" dominant-baseline="central" fill="#185FA5">otplib verification</text>

<rect x="396" y="72" width="254" height="52" rx="8" fill="#B5D4F4" stroke="#0C447C" stroke-width="0.5"/>
<text class="th" x="523" y="91" text-anchor="middle" dominant-baseline="central" fill="#042C53">RSA key generation</text>
<text class="ts" x="523" y="109" text-anchor="middle" dominant-baseline="central" fill="#185FA5">Private key encrypted via passphrase</text>

<!-- auth → encryption -->
<line x1="340" y1="140" x2="340" y2="166" class="arr" marker-end="url(#arrow)"/>
<text class="ts" x="352" y="156" dominant-baseline="central" fill="#555">authenticated session</text>

<!-- ── ENCRYPTION LAYER ── -->
<rect x="30" y="168" width="620" height="130" rx="14" fill="#EEEDFE" stroke="#534AB7" stroke-width="0.5"/>
<text class="th" x="340" y="192" text-anchor="middle" dominant-baseline="central" fill="#26215C">Client-side encryption — hybrid RSA + AES</text>

<rect x="56" y="210" width="175" height="52" rx="8" fill="#CECBF6" stroke="#3C3489" stroke-width="0.5"/>
<text class="th" x="143" y="229" text-anchor="middle" dominant-baseline="central" fill="#26215C">AES-GCM encrypt</text>
<text class="ts" x="143" y="247" text-anchor="middle" dominant-baseline="central" fill="#534AB7">File → ciphertext blob</text>

<rect x="253" y="210" width="175" height="52" rx="8" fill="#CECBF6" stroke="#3C3489" stroke-width="0.5"/>
<text class="th" x="340" y="229" text-anchor="middle" dominant-baseline="central" fill="#26215C">RSA key wrap</text>
<text class="ts" x="340" y="247" text-anchor="middle" dominant-baseline="central" fill="#534AB7">AES key → RSA envelope</text>

<rect x="450" y="210" width="175" height="52" rx="8" fill="#CECBF6" stroke="#3C3489" stroke-width="0.5"/>
<text class="th" x="537" y="229" text-anchor="middle" dominant-baseline="central" fill="#26215C">Cloudinary upload</text>
<text class="ts" x="537" y="247" text-anchor="middle" dominant-baseline="central" fill="#534AB7">Encrypted blob storage</text>

<!-- encryption → DB -->
<line x1="340" y1="298" x2="340" y2="324" class="arr" marker-end="url(#arrow)"/>
<text class="ts" x="352" y="314" dominant-baseline="central" fill="#555">file metadata + wrapped key</text>

<!-- ── DATABASE LAYER ── -->
<rect x="30" y="326" width="620" height="130" rx="14" fill="#F1EFE8" stroke="#5F5E5A" stroke-width="0.5"/>
<text class="th" x="340" y="350" text-anchor="middle" dominant-baseline="central" fill="#2C2C2A">Data layer — PostgreSQL + Prisma</text>

<rect x="56" y="368" width="160" height="52" rx="8" fill="#D3D1C7" stroke="#444441" stroke-width="0.5"/>
<text class="th" x="136" y="387" text-anchor="middle" dominant-baseline="central" fill="#2C2C2A">User model</text>
<text class="ts" x="136" y="405" text-anchor="middle" dominant-baseline="central" fill="#5F5E5A">Keys, MFA secrets</text>

<rect x="236" y="368" width="200" height="52" rx="8" fill="#D3D1C7" stroke="#444441" stroke-width="0.5"/>
<text class="th" x="336" y="387" text-anchor="middle" dominant-baseline="central" fill="#2C2C2A">EncryptedFile model</text>
<text class="ts" x="336" y="405" text-anchor="middle" dominant-baseline="central" fill="#5F5E5A">Cloudinary ID, AES key</text>

<rect x="456" y="368" width="168" height="52" rx="8" fill="#D3D1C7" stroke="#444441" stroke-width="0.5"/>
<text class="th" x="540" y="387" text-anchor="middle" dominant-baseline="central" fill="#2C2C2A">ChatSession</text>
<text class="ts" x="540" y="405" text-anchor="middle" dominant-baseline="central" fill="#5F5E5A">Message history</text>

<!-- DB → RAG -->
<line x1="340" y1="456" x2="340" y2="482" class="arr" marker-end="url(#arrow)"/>
<text class="ts" x="352" y="472" dominant-baseline="central" fill="#555">file text → vectorize</text>

<!-- ── RAG LAYER ── -->
<rect x="30" y="484" width="620" height="280" rx="14" fill="#E1F5EE" stroke="#0F6E56" stroke-width="0.5"/>
<text class="th" x="340" y="508" text-anchor="middle" dominant-baseline="central" fill="#04342C">RAG pipeline — LangChain + Pinecone</text>

<rect x="56" y="526" width="155" height="52" rx="8" fill="#9FE1CB" stroke="#085041" stroke-width="0.5"/>
<text class="th" x="133" y="545" text-anchor="middle" dominant-baseline="central" fill="#04342C">Text extraction</text>
<text class="ts" x="133" y="563" text-anchor="middle" dominant-baseline="central" fill="#0F6E56">pdfjs + Mammoth</text>

<rect x="231" y="526" width="155" height="52" rx="8" fill="#9FE1CB" stroke="#085041" stroke-width="0.5"/>
<text class="th" x="308" y="545" text-anchor="middle" dominant-baseline="central" fill="#04342C">Text chunking</text>
<text class="ts" x="308" y="563" text-anchor="middle" dominant-baseline="central" fill="#0F6E56">LangChain splitter</text>

<rect x="406" y="526" width="155" height="52" rx="8" fill="#9FE1CB" stroke="#085041" stroke-width="0.5"/>
<text class="th" x="483" y="545" text-anchor="middle" dominant-baseline="central" fill="#04342C">Embeddings</text>
<text class="ts" x="483" y="563" text-anchor="middle" dominant-baseline="central" fill="#0F6E56">Gemini embeddings</text>

<line x1="211" y1="552" x2="229" y2="552" class="arr" marker-end="url(#arrow)"/>
<line x1="386" y1="552" x2="404" y2="552" class="arr" marker-end="url(#arrow)"/>

<rect x="215" y="614" width="250" height="52" rx="8" fill="#9FE1CB" stroke="#085041" stroke-width="0.5"/>
<text class="th" x="340" y="633" text-anchor="middle" dominant-baseline="central" fill="#04342C">Pinecone vector DB</text>
<text class="ts" x="340" y="651" text-anchor="middle" dominant-baseline="central" fill="#0F6E56">Semantic index per document</text>
<line x1="483" y1="578" x2="430" y2="612" class="arr" marker-end="url(#arrow)"/>

<rect x="56" y="700" width="175" height="52" rx="8" fill="#9FE1CB" stroke="#085041" stroke-width="0.5"/>
<text class="th" x="143" y="719" text-anchor="middle" dominant-baseline="central" fill="#04342C">Query vectorize</text>
<text class="ts" x="143" y="737" text-anchor="middle" dominant-baseline="central" fill="#0F6E56">User prompt → vector</text>

<rect x="253" y="700" width="175" height="52" rx="8" fill="#9FE1CB" stroke="#085041" stroke-width="0.5"/>
<text class="th" x="340" y="719" text-anchor="middle" dominant-baseline="central" fill="#04342C">Semantic retrieval</text>
<text class="ts" x="340" y="737" text-anchor="middle" dominant-baseline="central" fill="#0F6E56">Top-k chunk lookup</text>

<!-- LLM generation box — taller to fit 3 lines -->
<rect x="450" y="695" width="185" height="72" rx="8" fill="#9FE1CB" stroke="#085041" stroke-width="0.5"/>
<text class="th" x="542" y="714" text-anchor="middle" dominant-baseline="central" fill="#04342C">LLM generation</text>
<text class="ts" x="542" y="731" text-anchor="middle" dominant-baseline="central" fill="#0F6E56">gpt-oss-120b</text>
<text class="ts" x="542" y="748" text-anchor="middle" dominant-baseline="central" fill="#0F6E56">llama-3.3-70b-versatile</text>

<path d="M340 666 L340 698" class="arr" stroke-dasharray="5 4" marker-end="url(#arrow)" fill="none" stroke="#555"/>
<line x1="231" y1="726" x2="251" y2="726" class="arr" marker-end="url(#arrow)"/>
<line x1="428" y1="726" x2="448" y2="726" class="arr" marker-end="url(#arrow)"/>

<!-- RAG → frontend -->
<line x1="340" y1="764" x2="340" y2="790" class="arr" marker-end="url(#arrow)"/>
<text class="ts" x="352" y="780" dominant-baseline="central" fill="#555">AI response + context</text>

<!-- ── FRONTEND ── -->
<rect x="30" y="792" width="620" height="130" rx="14" fill="#FAECE7" stroke="#993C1D" stroke-width="0.5"/>
<text class="th" x="340" y="816" text-anchor="middle" dominant-baseline="central" fill="#4A1B0C">Frontend — Next.js 14 / React</text>

<rect x="56" y="834" width="140" height="52" rx="8" fill="#F5C4B3" stroke="#993C1D" stroke-width="0.5"/>
<text class="th" x="126" y="853" text-anchor="middle" dominant-baseline="central" fill="#4A1B0C">Document vault</text>
<text class="ts" x="126" y="871" text-anchor="middle" dominant-baseline="central" fill="#993C1D">Upload + manage files</text>

<rect x="216" y="834" width="140" height="52" rx="8" fill="#F5C4B3" stroke="#993C1D" stroke-width="0.5"/>
<text class="th" x="286" y="853" text-anchor="middle" dominant-baseline="central" fill="#4A1B0C">AI chat UI</text>
<text class="ts" x="286" y="871" text-anchor="middle" dominant-baseline="central" fill="#993C1D">Chat with documents</text>

<rect x="376" y="834" width="140" height="52" rx="8" fill="#F5C4B3" stroke="#993C1D" stroke-width="0.5"/>
<text class="th" x="446" y="853" text-anchor="middle" dominant-baseline="central" fill="#4A1B0C">Key management</text>
<text class="ts" x="446" y="871" text-anchor="middle" dominant-baseline="central" fill="#993C1D">Passphrase + RSA UI</text>

<rect x="530" y="834" width="104" height="52" rx="8" fill="#F5C4B3" stroke="#993C1D" stroke-width="0.5"/>
<text class="th" x="582" y="853" text-anchor="middle" dominant-baseline="central" fill="#4A1B0C">Tailwind CSS</text>
<text class="ts" x="582" y="871" text-anchor="middle" dominant-baseline="central" fill="#993C1D">Heroicons UI</text>

<!-- ── LEGEND ── -->
<rect x="30"  y="958" width="12" height="12" rx="2" fill="#B5D4F4" stroke="#0C447C" stroke-width="0.5"/>
<text class="ts" x="48"  y="968" fill="#333">Auth</text>
<rect x="90"  y="958" width="12" height="12" rx="2" fill="#CECBF6" stroke="#3C3489" stroke-width="0.5"/>
<text class="ts" x="108" y="968" fill="#333">Encryption</text>
<rect x="192" y="958" width="12" height="12" rx="2" fill="#D3D1C7" stroke="#444441" stroke-width="0.5"/>
<text class="ts" x="210" y="968" fill="#333">Database</text>
<rect x="284" y="958" width="12" height="12" rx="2" fill="#9FE1CB" stroke="#085041" stroke-width="0.5"/>
<text class="ts" x="302" y="968" fill="#333">RAG pipeline</text>
<rect x="392" y="958" width="12" height="12" rx="2" fill="#F5C4B3" stroke="#993C1D" stroke-width="0.5"/>
<text class="ts" x="410" y="968" fill="#333">Frontend</text>

</svg>
